# xmcd
#
# Track frame offsets:
#       150
#       12152
#       26029
#       36942
#       56997
#       70883
#       84276
#       95445
#       112269
#       123069
#       138876
#       152598
#
# Disc length: 2181 seconds
#
# Revision: 1
# Processed by: cddbd v1.5PL3 Copyright (c) Steve Scherf et al.
# Submitted via: MusiCat 1.1
#
DISCID=9908830c
DTITLE=Sheppard Brother's Bluegrass - Red White and Blue
DYEAR=1900
DGENRE=
TTITLE0=I'm Just A Used To Be To You
TTITLE1=Red, White, And Blue
TTITLE2=Fox On The Run
TTITLE3='Till The Storm Passes By
TTITLE4=The Sounds Of The Mountain
TTITLE5=I'm Lonely Tonight
TTITLE6=Hello Trouble
TTITLE7=Heaven's Bright Shore
TTITLE8=Don't Let My Love Get In The Way
TTITLE9=Living Like A Fool
TTITLE10=The Heart Of A Little Mountain Girl
TTITLE11=You Better Get Right Little Darlin'
EXTD=\n\n
EXTT0=
EXTT1=
EXTT2=
EXTT3=
EXTT4=
EXTT5=
EXTT6=
EXTT7=
EXTT8=
EXTT9=
EXTT10=
EXTT11=
PLAYORDER=
